<svg version="1.1" viewBox="0 0 300 300" xmlns="http://www.w3.org/2000/svg"><path d="m33.621 29.421c-18.559 0-33.621 14.675-33.621 32.758 0 18.083 15.062 32.758 33.621 32.758 18.559 0 33.621-14.675 33.621-32.758 0-18.083-15.062-32.758-33.621-32.758zm0 6.5508c14.827 0 26.896 11.76 26.896 26.207 0 14.446-12.07 26.207-26.896 26.207-14.827 0-26.896-11.761-26.896-26.207 0-14.447 12.07-26.207 26.896-26.207zm15.432 11.729-22.156 21.588-8.707-8.4531-4.7402 4.6191 13.447 13.104 26.896-26.207zm37.152 2.4062v17.244h213.79v-17.244zm-52.584 67.135c-18.559 0-33.621 14.675-33.621 32.758 0 18.083 15.062 32.758 33.621 32.758 18.559 0 33.621-14.675 33.621-32.758 0-18.083-15.062-32.758-33.621-32.758zm0 6.5508c14.827 0 26.896 11.76 26.896 26.207 0 14.446-12.07 26.207-26.896 26.207-14.827 0-26.896-11.761-26.896-26.207 0-14.447 12.07-26.207 26.896-26.207zm15.432 11.729-22.156 21.588-8.707-8.4531-4.7402 4.6191 13.447 13.104 26.896-26.207zm37.152 2.4062v17.244h213.79v-17.244zm-52.584 67.137c-18.559 0-33.621 14.675-33.621 32.758 0 18.083 15.062 32.758 33.621 32.758 18.559 0 33.621-14.675 33.621-32.758 0-18.083-15.062-32.758-33.621-32.758zm0 6.5508c14.827 0 26.896 11.761 26.896 26.207 0 14.446-12.07 26.207-26.896 26.207-14.827 0-26.896-11.761-26.896-26.207 0-14.447 12.07-26.207 26.896-26.207zm15.432 11.729-22.156 21.588-8.707-8.4531-4.7402 4.6191 13.447 13.104 26.896-26.207zm37.152 2.4062v17.244h213.79v-17.244z"/></svg>
