<svg version="1.1" viewBox="0 0 300 300" xmlns="http://www.w3.org/2000/svg"><path d="m20.211 0v4.7722l-0.15729 229.93 188.39 65.295v-65.384h71.5v-234.62zm26.238 9.5586h220.37v215.51h-58.374v-21.913h34.892v-18.302h-34.892v-38.435h34.892v-18.302h-34.892v-36.605h34.892v-18.302h-34.892v-4.6185zm-13.119 3.757 164.63 59.99v214.34l-164.84-59.221zm76.558 106.1c-22.984 0-41.638 19.474-41.638 43.468s18.654 43.468 41.638 43.468c22.984 0 41.638-19.474 41.638-43.468s-18.654-43.468-41.638-43.468zm0 8.6936c18.363 0 33.309 15.605 33.309 34.774 0 19.17-14.946 34.774-33.309 34.774-18.361 0-33.309-15.605-33.309-34.774 0-19.17 14.948-34.774 33.309-34.774zm19.114 15.561-27.443 28.647-10.781-11.214-5.8732 6.127 16.654 17.387 33.312-34.774z"/></svg>
