<svg version="1.1" viewBox="0 0 300 300" xmlns="http://www.w3.org/2000/svg"><path d="m143.08 69.343c-3.1736 0-5.7368-2.5633-5.7368-5.7368s2.5633-5.7368 5.7368-5.7368h39.596c3.1736 0 5.7368 2.5633 5.7368 5.7368s-2.5633 5.7368-5.7368 5.7368zm65.644-7.2504h54.17c2.368 0 4.3942 1.4403 5.273 3.4665l30.686 59.248c0.48824 0.92766 0.68354 1.953 0.63472 2.9294l0.51265 165.86c0 3.1492-2.5633 5.7124-5.7124 5.7124v0.0244h-288.55c-3.1736 1e-5 -5.7368-2.5633-5.7368-5.7368v-166.86l0.024412-0.0976v-0.0488l0.024412-0.0977 0.024412-0.0976v-0.0488l0.024412-0.0977 0.024412-0.0488v-0.1464l0.048824-0.0976v-0.0488l0.048824-0.0976v-0.0488l0.024412-0.0488v-0.0244l0.024412-0.0732 0.17088-0.3416 0.097648-0.1954 0.024412-0.0488 0.024412-0.0244v-0.0244l0.097648-0.1952 0.048824-0.0977 0.048824-0.0732 0.073236-0.1464 31.199-59.322c1.0253-1.953 3.0027-3.0515 5.0533-3.0515v-0.02441h52.974v-54.292c0-1.953 0.8056-3.735 2.075-5.0289 1.2938-1.2694 3.0759-2.075 5.0289-2.075h104.43c1.953 0 3.735 0.8056 5.0289 2.075 1.2938 1.2938 2.075 3.0515 2.075 5.0289zm-118.64 11.449h-49.532l-25.34 48.214h269.19l-24.974-48.214h-50.704v17.943h12.621c3.1736 0 5.7368 2.5633 5.7368 5.7368 0 3.1736-2.5633 5.7368-5.7368 5.7368h-140.91c-3.1736 0-5.7368-2.5633-5.7368-5.7368 0-3.1736 2.5633-5.7368 5.7368-5.7368h9.6672v-17.943zm-78.631 59.688v154.65h277.08l-0.46383-154.65zm185.82-121.11h-95.744v79.364h95.744zm-81.121 30.32c-3.1736 0-5.7368-2.5633-5.7368-5.7368s2.5633-5.7368 5.7368-5.7368h66.498c3.1736 0 5.7368 2.5633 5.7368 5.7368s-2.5633 5.7368-5.7368 5.7368z"/></svg>
